<?xml version="1.0" encoding="UTF-8" standalone="no"?>
<svg
   xmlns:dc="http://purl.org/dc/elements/1.1/"
   xmlns:cc="http://creativecommons.org/ns#"
   xmlns:rdf="http://www.w3.org/1999/02/22-rdf-syntax-ns#"
   xmlns:svg="http://www.w3.org/2000/svg"
   xmlns="http://www.w3.org/2000/svg"
   id="svg11"
   xml:space="preserve"
   enable-background="new 0 0 200 200"
   viewBox="0 0 200 200"
   y="0px"
   x="0px"
   version="1.1"><metadata
     id="metadata15"><rdf:RDF><cc:Work
         rdf:about=""><dc:format>image/svg+xml</dc:format><dc:type
           rdf:resource="http://purl.org/dc/dcmitype/StillImage" /></cc:Work></rdf:RDF></metadata><defs
     id="defs695508" /><linearGradient
     spreadMethod="pad"
     y2="30%"
     x2="-10%"
     y1="120%"
     x1="30%"
     id="3d_gradient2-logo-f5707205-a7db-4f92-8704-5b92070dec92"><stop
       id="stop695485"
       stop-opacity="1"
       stop-color="#ffffff"
       offset="0%" /><stop
       id="stop695487"
       stop-opacity="1"
       stop-color="#000000"
       offset="100%" /></linearGradient><linearGradient
     gradientTransform="rotate(-30)"
     spreadMethod="pad"
     y2="30%"
     x2="-10%"
     y1="120%"
     x1="30%"
     id="3d_gradient3-logo-f5707205-a7db-4f92-8704-5b92070dec92"><stop
       id="stop695490"
       stop-opacity="1"
       stop-color="#ffffff"
       offset="0%" /><stop
       id="stop695492"
       stop-opacity="1"
       stop-color="#cccccc"
       offset="50%" /><stop
       id="stop695494"
       stop-opacity="1"
       stop-color="#000000"
       offset="100%" /></linearGradient><path
     stroke-miterlimit="2"
     d="m 149.87888,42.35125 c -1.33901,-0.167379 -2.67806,0.502137 -3.1802,1.673789 L 99.999971,147.96732 53.301262,44.025039 c -0.502136,-1.171652 -1.841167,-1.841168 -3.180198,-1.673789 -1.171652,0.334758 -2.175926,1.50641 -2.175926,2.845441 V 154.99724 c 0,1.50641 1.339031,2.67806 2.845465,2.67806 1.506386,0 2.845417,-1.17165 2.845417,-2.67806 V 58.252244 l 43.853267,97.749266 c 0,0.16738 0,0.16738 0,0.16738 l 0.334758,0.50214 c 0,0 0,0.16738 0.167379,0.16738 0,0.16737 0.334758,0.33475 0.502137,0.33475 0,0.16738 0,0.16738 0.167379,0.16738 0,0 0.167379,0.16738 0.167379,0.16738 H 99.1631 c 0,0 0,0.16738 0.167378,0.16738 h 0.669493 0.669519 c 0.16738,0 0.16738,-0.16738 0.16738,-0.16738 0.16737,0 0.16737,0 0.33475,0 l 0.16738,-0.16738 c 0.16738,0 0.16738,0 0.16738,-0.16738 0.33476,0 0.50214,-0.16738 0.66952,-0.33475 v -0.16738 c 0.16738,-0.16738 0.16738,-0.33476 0.33475,-0.50214 v -0.16738 l 43.85327,-97.749266 v 96.744996 c 0,1.50641 1.33903,2.67806 2.84544,2.67806 1.67379,0 2.84547,-1.17165 2.84547,-2.67806 V 45.196691 c 0,-1.339031 -1.0043,-2.510683 -2.17595,-2.845441 z"
     style="font-style:normal;font-weight:normal;font-size:72px;line-height:1;font-family:'Brandmark Stencil 1';font-variant-ligatures:normal;text-align:center;text-anchor:middle;fill:#a5bff7;stroke:#a5bff7;stroke-width:4.64941359;stroke-linejoin:miter;stroke-miterlimit:2"
     id="path695513" /></svg>