<?xml version="1.0" encoding="UTF-8" standalone="no" ?>
<!DOCTYPE svg PUBLIC "-//W3C//DTD SVG 1.1//EN" "http://www.w3.org/Graphics/SVG/1.1/DTD/svg11.dtd">
<svg xmlns="http://www.w3.org/2000/svg" xmlns:xlink="http://www.w3.org/1999/xlink" version="1.1" width="1024" height="768" viewBox="0 0 1024 768" xml:space="preserve">
<desc>Created with Fabric.js 5.3.0</desc>
<defs>
</defs>
<g transform="matrix(1 0 0 1 512.5 384.5)" id="backgroundElement"  >
<rect style="stroke: none; stroke-width: 1; stroke-dasharray: none; stroke-linecap: butt; stroke-dashoffset: 0; stroke-linejoin: miter; stroke-miterlimit: 4; fill: rgb(255,255,255); fill-opacity: 0; fill-rule: nonzero; opacity: 1;"  x="-512" y="-384" rx="0" ry="0" width="1024" height="768" />
</g>
<g transform="matrix(1 0 0 1 512 384)"  >
<path style="stroke: rgb(0,0,0); stroke-width: 1; stroke-dasharray: none; stroke-linecap: butt; stroke-dashoffset: 0; stroke-linejoin: miter; stroke-miterlimit: 4; fill: rgb(124,100,226); fill-rule: nonzero; opacity: 1;"  transform=" translate(-512, -384)" d="M 661.36 344.69 C 660.78 344.66 660.2 344.79 659.67 345.08 C 658.92 345.47999999999996 658.4699999999999 346.10999999999996 658.26 346.41999999999996 L 658.17 346.56999999999994 L 658.11 346.72999999999996 C 658.16 346.59 657.97 347.05999999999995 657.73 347.62999999999994 C 657.5 348.19999999999993 657.16 349.00999999999993 656.74 350.0199999999999 C 655.89 352.0499999999999 654.69 354.8999999999999 653.27 358.2999999999999 C 650.42 365.0899999999999 646.65 374.0699999999999 642.89 383.01999999999987 C 635.37 400.91999999999985 627.89 418.70999999999987 627.89 418.70999999999987 L 627.87 418.7599999999999 L 627.85 418.8199999999999 C 627.3000000000001 420.4499999999999 628.08 422.2599999999999 629.57 423.0099999999999 L 629.6 423.02999999999986 L 629.63 423.03999999999985 C 631.32 423.78999999999985 633.4399999999999 422.95999999999987 634.04 421.16999999999985 L 634 421.27999999999986 L 661.24 356.52999999999986 L 688.37 421.27999999999986 L 688.37 421.28999999999985 C 688.92 422.5699999999998 690.3 423.27999999999986 691.48 423.27999999999986 C 691.69 423.27999999999986 692.2 423.27999999999986 692.76 423.01999999999987 C 694.3199999999999 422.29999999999984 695.2 420.32999999999987 694.47 418.6899999999999 L 664.46 347.1099999999999 L 664.5 347.2199999999999 C 664.33 346.69999999999993 664.11 346.4099999999999 664.09 346.3699999999999 L 664.1700000000001 346.6799999999999 C 664.0400000000001 346.3799999999999 663.7800000000001 346.1099999999999 663.5500000000001 345.8999999999999 L 663.8700000000001 346.05999999999995 C 663.7800000000001 345.93999999999994 663.6000000000001 345.92999999999995 663.5000000000001 345.81999999999994 C 663.4400000000002 345.7699999999999 663.4300000000001 345.62999999999994 663.3700000000001 345.60999999999996 C 663.2100000000002 345.53 663.2000000000002 345.55999999999995 663.0700000000002 345.53999999999996 C 662.7000000000002 345.24999999999994 662.3700000000001 344.86999999999995 661.9200000000002 344.77 C 661.7400000000002 344.71999999999997 661.5500000000002 344.7 661.3600000000002 344.69 z M 185.11 345.85 C 184.92000000000002 345.84000000000003 184.74 345.85 184.55 345.88 L 184.44 345.89 L 184.32999999999998 345.91999999999996 C 182.89999999999998 346.33 181.83999999999997 347.59 181.83999999999997 349.19999999999993 L 181.83999999999997 420.04999999999995 C 181.83999999999997 421.90999999999997 183.42 423.28 185.17 423.28 C 186.92 423.28 188.51 421.90999999999997 188.51 420.04999999999995 L 188.51 364.62999999999994 L 213.79999999999998 421.0199999999999 L 213.79999999999998 421.25999999999993 L 214.18999999999997 421.8299999999999 L 214.18999999999997 421.8499999999999 C 214.19999999999996 421.8599999999999 214.20999999999998 421.8599999999999 214.20999999999998 421.8699999999999 L 214.26999999999998 421.95999999999987 L 214.24999999999997 421.8899999999999 C 214.27999999999997 421.9399999999999 214.37999999999997 421.9399999999999 214.40999999999997 421.9899999999999 C 214.46999999999997 422.0699999999999 214.47999999999996 422.2399999999999 214.52999999999997 422.2999999999999 C 214.69999999999996 422.4899999999999 214.83999999999997 422.5899999999999 214.97999999999996 422.6699999999999 C 215.00999999999996 422.6899999999999 215.04999999999995 422.6899999999999 215.07999999999996 422.6999999999999 L 215.54999999999995 423.1699999999999 L 216.31999999999996 423.1699999999999 C 216.38999999999996 423.1799999999999 216.42999999999998 423.2799999999999 216.48999999999995 423.2799999999999 L 216.91999999999996 423.2799999999999 L 217.35999999999996 423.2799999999999 C 217.41999999999996 423.2799999999999 217.45999999999995 423.1799999999999 217.52999999999994 423.1699999999999 L 218.29999999999995 423.1699999999999 L 218.78999999999996 422.6799999999999 C 218.84999999999997 422.6399999999999 218.87999999999997 422.6699999999999 218.93999999999997 422.6099999999999 C 218.99999999999997 422.5499999999999 218.96999999999997 422.5199999999999 219.00999999999996 422.4599999999999 C 219.09999999999997 422.3999999999999 219.35999999999996 422.3299999999999 219.38999999999996 422.2999999999999 L 219.82999999999996 421.8599999999999 L 219.82999999999996 421.6399999999999 L 220.03999999999996 421.4299999999999 L 220.03999999999996 421.01999999999987 L 245.33999999999997 364.6299999999999 L 245.33999999999997 420.0499999999999 C 245.33999999999997 421.9099999999999 246.92999999999998 423.2799999999999 248.67999999999998 423.2799999999999 C 250.45999999999998 423.2799999999999 252.01 421.7999999999999 252.01 420.0499999999999 L 252.01 349.19999999999993 C 252.01 347.5899999999999 250.95 346.3299999999999 249.51999999999998 345.91999999999996 L 249.40999999999997 345.89 L 249.28999999999996 345.88 C 247.81999999999996 345.69 246.29999999999995 346.4 245.67999999999995 347.86 L 216.91999999999996 411.86 L 188.16999999999996 347.86 L 188.16999999999996 347.85 C 187.61999999999995 346.58000000000004 186.38999999999996 345.88 185.10999999999996 345.85 z M 376.13 345.86 C 375.7 345.85 375.27 345.91 374.85 346.05 L 374.75 346.08 L 374.65 346.13 C 373.07 346.92 372.33 348.71999999999997 372.95 350.38 L 372.96 350.40999999999997 L 403.22999999999996 421.33 L 403.24999999999994 421.37 C 403.2799999999999 421.42 403.2799999999999 421.42 403.30999999999995 421.47 L 403.30999999999995 422.63000000000005 L 404.18999999999994 422.63000000000005 L 404.61999999999995 423.06000000000006 L 405.30999999999995 423.06000000000006 C 405.42999999999995 423.1000000000001 405.43999999999994 423.1700000000001 405.55999999999995 423.1700000000001 L 405.04999999999995 423.1700000000001 L 405.15999999999997 423.2800000000001 L 406.32 423.2800000000001 L 406.75 423.2800000000001 C 406.75 423.2800000000001 407.09 423.30000000000007 407.48 423.1000000000001 C 407.49 423.1000000000001 407.49 423.0700000000001 407.5 423.06000000000006 L 407.91 423.06000000000006 L 408.34000000000003 422.63000000000005 L 408.78000000000003 422.19000000000005 L 409.12 421.86000000000007 L 409.12 421.68000000000006 C 409.14 421.63000000000005 409.21 421.5400000000001 409.22 421.51000000000005 C 409.28000000000003 421.38000000000005 409.27000000000004 421.39000000000004 409.28000000000003 421.37000000000006 L 409.3 421.33000000000004 L 409.32 421.29 L 438.63 352.54 L 504.49 352.54 C 506.35 352.54 507.83 351.06 507.83 349.20000000000005 C 507.83 347.32000000000005 506.24 345.87000000000006 504.49 345.87000000000006 L 436.45 345.87000000000006 L 436.13 345.87000000000006 C 436.13 345.87000000000006 435.79 345.8400000000001 435.4 346.0400000000001 C 435.37 346.05000000000007 435.35999999999996 346.1400000000001 435.32 346.1600000000001 C 435.18 346.18000000000006 435.12 346.1500000000001 434.92 346.25000000000006 C 434.81 346.30000000000007 434.85 346.31000000000006 434.78000000000003 346.3500000000001 C 434.77000000000004 346.36000000000007 434.77000000000004 346.3500000000001 434.75000000000006 346.36000000000007 C 434.75000000000006 346.37000000000006 434.74000000000007 346.38000000000005 434.74000000000007 346.39000000000004 C 434.70000000000005 346.42 434.6700000000001 346.44000000000005 434.64000000000004 346.46000000000004 C 434.62000000000006 346.47 434.62000000000006 346.46000000000004 434.59000000000003 346.47 C 434.44000000000005 346.55 434.46000000000004 346.57000000000005 434.39000000000004 346.62 L 433.44000000000005 346.62 L 433.44000000000005 346.84000000000003 L 433.33000000000004 346.84000000000003 L 433.33000000000004 348.14000000000004 L 406.32000000000005 411.58000000000004 L 379.1 347.9200000000001 C 378.62 346.62000000000006 377.41 345.9000000000001 376.13 345.86000000000007 z M 710.46 345.86 C 710.0400000000001 345.85 709.6 345.91 709.19 346.05 L 709.08 346.08 L 708.99 346.13 C 707.41 346.92 706.66 348.71999999999997 707.28 350.38 L 707.29 350.40999999999997 L 737.5699999999999 421.33 L 737.5899999999999 421.37 C 737.6099999999999 421.42 737.6199999999999 421.42 737.6399999999999 421.47 L 737.6399999999999 422.63000000000005 L 738.5199999999999 422.63000000000005 L 738.9499999999998 423.06000000000006 L 739.6399999999999 423.06000000000006 C 739.7599999999999 423.1000000000001 739.7799999999999 423.1700000000001 739.8999999999999 423.1700000000001 L 739.3899999999999 423.1700000000001 L 739.4899999999999 423.2800000000001 L 740.6599999999999 423.2800000000001 L 741.0899999999998 423.2800000000001 C 741.0899999999998 423.2800000000001 741.4299999999998 423.30000000000007 741.8099999999998 423.1000000000001 C 741.8199999999998 423.1000000000001 741.8299999999998 423.0700000000001 741.8399999999998 423.06000000000006 L 742.2499999999998 423.06000000000006 L 742.6799999999997 422.63000000000005 L 743.1199999999998 422.19000000000005 L 743.4499999999998 421.86000000000007 L 743.4499999999998 421.68000000000006 C 743.4799999999998 421.63000000000005 743.5499999999998 421.5400000000001 743.5599999999998 421.51000000000005 C 743.6099999999998 421.38000000000005 743.6099999999998 421.39000000000004 743.6199999999998 421.37000000000006 L 743.6399999999998 421.33000000000004 L 743.6499999999997 421.29 L 772.9699999999998 352.54 L 838.8299999999998 352.54 C 840.6899999999998 352.54 842.1599999999999 351.06 842.1599999999999 349.20000000000005 C 842.1599999999999 347.32000000000005 840.5799999999998 345.87000000000006 838.8299999999998 345.87000000000006 L 770.7899999999998 345.87000000000006 L 770.4599999999998 345.87000000000006 C 770.4599999999998 345.87000000000006 770.1199999999998 345.8400000000001 769.7399999999998 346.0400000000001 C 769.6999999999998 346.05000000000007 769.6999999999998 346.1400000000001 769.6599999999997 346.1600000000001 C 769.5199999999998 346.18000000000006 769.4499999999997 346.1500000000001 769.2499999999998 346.25000000000006 C 769.1499999999997 346.30000000000007 769.1799999999997 346.31000000000006 769.1199999999998 346.3500000000001 C 769.0999999999998 346.36000000000007 769.1099999999998 346.3500000000001 769.0899999999998 346.36000000000007 C 769.0799999999998 346.37000000000006 769.0799999999998 346.38000000000005 769.0699999999998 346.39000000000004 C 769.0399999999998 346.42 768.9999999999998 346.44000000000005 768.9799999999998 346.46000000000004 C 768.9499999999998 346.47 768.9499999999998 346.46000000000004 768.9299999999998 346.47 C 768.7699999999999 346.55 768.7999999999998 346.57000000000005 768.7299999999998 346.62 L 767.7799999999997 346.62 L 767.7799999999997 346.84000000000003 L 767.6699999999997 346.84000000000003 L 767.6699999999997 348.14000000000004 L 740.6499999999997 411.58000000000004 L 713.4399999999997 347.9200000000001 C 712.9499999999997 346.62000000000006 711.7399999999997 345.9000000000001 710.4599999999997 345.86000000000007 z M 569.46 345.87 C 569.46 345.87 569.2 345.93 569 345.97 L 568.78 345.97 L 568.4599999999999 346.13000000000005 C 568.2499999999999 346.24000000000007 568.03 346.33000000000004 567.79 346.51000000000005 L 566.88 346.51000000000005 L 566.88 347.71000000000004 L 566.72 347.87000000000006 L 548.9200000000001 408.4100000000001 L 530.82 348.2100000000001 L 530.8100000000001 348.1900000000001 C 530.2700000000001 346.54000000000013 528.44 345.5200000000001 526.73 346.04000000000013 C 524.89 346.5000000000001 523.9300000000001 348.48000000000013 524.51 350.21000000000015 L 545.77 420.91000000000014 L 545.75 420.84000000000015 C 546.14 422.39000000000016 547.61 423.28000000000014 548.94 423.28000000000014 C 550.4100000000001 423.28000000000014 551.69 422.3600000000001 552.11 420.89000000000016 L 569.88 360.8700000000002 L 587.56 420.89000000000016 C 587.9799999999999 422.3600000000002 589.26 423.28000000000014 590.7299999999999 423.28000000000014 C 592.2199999999999 423.28000000000014 593.5199999999999 422.23000000000013 593.8999999999999 420.89000000000016 L 615.1599999999999 350.21000000000015 C 615.7399999999999 348.48000000000013 614.7799999999999 346.50000000000017 612.9399999999998 346.04000000000013 C 611.2299999999998 345.52000000000015 609.3999999999999 346.54000000000013 608.8599999999998 348.1900000000001 L 608.8499999999998 348.2100000000001 L 590.7499999999998 408.4100000000001 L 572.9499999999998 347.87000000000006 L 572.8099999999998 347.74000000000007 C 572.8099999999998 347.7200000000001 572.8199999999998 347.7300000000001 572.8099999999998 347.7100000000001 L 572.7899999999998 347.6900000000001 L 572.7899999999998 347.0900000000001 L 572.0699999999998 346.7200000000001 C 572.0299999999999 346.6900000000001 571.9899999999998 346.6400000000001 571.8599999999998 346.5300000000001 C 571.8499999999998 346.5300000000001 571.8199999999998 346.5200000000001 571.8099999999998 346.5200000000001 L 571.3799999999999 346.0800000000001 L 571.2699999999999 346.0800000000001 L 571.1599999999999 345.9700000000001 L 570.6499999999999 345.9700000000001 C 570.5899999999999 345.9600000000001 570.4799999999999 345.8800000000001 570.4399999999998 345.8800000000001 C 570.2799999999999 345.8600000000001 570.2399999999998 345.8700000000001 570.2099999999998 345.8700000000001 L 569.9999999999998 345.8700000000001 L 569.8899999999998 345.8700000000001 L 569.6699999999997 345.8700000000001 L 569.4599999999997 345.8700000000001 z M 566.88 347.79 L 566.88 347.91 C 566.84 348.01000000000005 566.82 348.05 566.8 348.22 C 566.78 348.31 566.66 348.36 566.66 348.44000000000005 C 566.66 348.44000000000005 566.68 348.19000000000005 566.7199999999999 348.0400000000001 C 566.7499999999999 347.9500000000001 566.8199999999999 347.87000000000006 566.8799999999999 347.7900000000001 z M 572.83 347.85 C 572.87 347.92 572.9200000000001 347.97 572.95 348.04 C 572.96 348.08000000000004 572.95 348.09000000000003 572.96 348.14000000000004 C 572.95 348.08000000000004 572.86 347.96000000000004 572.83 347.87000000000006 L 572.83 347.8500000000001 z M 317.35 348.54 C 316.58000000000004 348.53000000000003 315.85 348.53000000000003 315.73 348.54 C 315.61 348.54 315.26 348.56 314.95000000000005 348.58000000000004 C 314.63000000000005 348.6 314.09000000000003 348.63000000000005 313.74000000000007 348.67 C 313.38000000000005 348.7 312.87000000000006 348.75 312.6000000000001 348.78000000000003 C 312.3300000000001 348.82000000000005 311.93000000000006 348.87 311.7100000000001 348.90000000000003 C 311.4900000000001 348.93000000000006 311.0800000000001 349.00000000000006 310.7900000000001 349.04 C 310.50000000000006 349.09000000000003 310.0400000000001 349.18 309.7600000000001 349.24 C 309.48000000000013 349.29 309.0200000000001 349.39 308.7400000000001 349.46000000000004 C 308.46000000000015 349.52000000000004 308.03000000000014 349.62000000000006 307.78000000000014 349.69000000000005 C 307.53000000000014 349.75000000000006 307.10000000000014 349.87000000000006 306.82000000000016 349.95000000000005 C 306.5400000000002 350.03000000000003 306.0600000000002 350.18000000000006 305.75000000000017 350.27000000000004 C 305.45000000000016 350.37000000000006 304.89000000000016 350.56000000000006 304.52000000000015 350.69000000000005 C 304.14000000000016 350.83000000000004 303.6100000000001 351.03000000000003 303.34000000000015 351.14000000000004 C 303.0600000000002 351.25000000000006 302.60000000000014 351.45000000000005 302.3000000000001 351.57000000000005 C 302.0000000000001 351.70000000000005 301.4500000000001 351.95000000000005 301.0800000000001 352.13000000000005 C 300.7100000000001 352.31000000000006 300.1600000000001 352.58000000000004 299.8700000000001 352.7300000000001 C 299.5800000000001 352.8900000000001 299.17000000000013 353.11000000000007 298.9500000000001 353.2300000000001 C 298.7300000000001 353.3500000000001 298.2900000000001 353.61000000000007 297.9700000000001 353.80000000000007 C 297.6500000000001 353.99000000000007 297.0300000000001 354.39000000000004 296.5900000000001 354.68000000000006 C 296.1500000000001 354.9700000000001 295.5600000000001 355.38000000000005 295.2800000000001 355.58000000000004 C 295.0000000000001 355.79 294.55000000000007 356.13000000000005 294.2700000000001 356.34000000000003 C 294.0000000000001 356.55 293.5600000000001 356.91 293.2900000000001 357.13000000000005 C 293.0300000000001 357.36000000000007 292.5900000000001 357.7300000000001 292.32000000000005 357.97 C 292.05 358.21 291.46000000000004 358.77000000000004 291.01000000000005 359.21000000000004 C 290.57000000000005 359.65000000000003 290.02000000000004 360.22 289.79 360.46000000000004 C 289.56 360.71000000000004 289.26000000000005 361.05 289.12 361.21000000000004 C 288.97 361.37000000000006 288.7 361.69000000000005 288.5 361.93000000000006 C 288.3 362.1700000000001 287.96 362.5900000000001 287.75 362.87000000000006 C 287.54 363.14000000000004 287.19 363.5900000000001 286.99 363.87000000000006 C 286.78000000000003 364.15000000000003 286.40000000000003 364.71000000000004 286.13 365.11000000000007 C 285.87 365.51000000000005 285.51 366.07000000000005 285.34 366.3500000000001 C 285.16999999999996 366.6300000000001 284.9 367.0800000000001 284.75 367.3400000000001 C 284.6 367.61000000000007 284.33 368.1000000000001 284.15 368.4400000000001 C 283.97999999999996 368.7800000000001 283.69 369.35000000000014 283.52 369.7100000000001 C 283.34999999999997 370.0600000000001 283.09999999999997 370.6000000000001 282.97999999999996 370.8900000000001 C 282.84999999999997 371.1900000000001 282.65 371.6600000000001 282.53999999999996 371.9300000000001 C 282.43999999999994 372.2100000000001 282.22999999999996 372.7400000000001 282.09999999999997 373.1100000000001 C 281.96 373.4900000000001 281.77 374.0500000000001 281.66999999999996 374.3600000000001 C 281.56999999999994 374.6800000000001 281.40999999999997 375.21000000000015 281.31999999999994 375.54000000000013 C 281.2199999999999 375.8800000000001 281.06999999999994 376.4400000000001 280.98999999999995 376.79000000000013 C 280.9 377.15000000000015 280.78 377.6900000000001 280.71 377.9900000000001 C 280.65 378.29000000000013 280.54999999999995 378.8100000000001 280.48999999999995 379.1300000000001 C 280.43999999999994 379.4500000000001 280.34999999999997 379.98000000000013 280.29999999999995 380.3100000000001 C 280.25999999999993 380.6400000000001 280.17999999999995 381.2100000000001 280.13999999999993 381.5700000000001 C 280.0999999999999 381.9400000000001 280.04999999999995 382.5100000000001 280.0299999999999 382.8400000000001 C 279.99999999999994 383.1700000000001 279.9699999999999 383.7500000000001 279.94999999999993 384.12000000000006 C 279.93999999999994 384.50000000000006 279.91999999999996 385.18000000000006 279.91999999999996 385.64000000000004 C 279.91999999999996 386.1 279.93999999999994 386.78000000000003 279.94999999999993 387.15000000000003 C 279.9699999999999 387.53000000000003 279.99999999999994 388.11 280.0299999999999 388.44000000000005 C 280.0499999999999 388.76000000000005 280.0999999999999 389.33000000000004 280.13999999999993 389.70000000000005 C 280.17999999999995 390.07000000000005 280.25999999999993 390.68000000000006 280.31999999999994 391.06000000000006 C 280.36999999999995 391.43000000000006 280.4699999999999 392.0300000000001 280.53999999999996 392.38000000000005 C 280.59999999999997 392.7300000000001 280.71 393.2900000000001 280.78999999999996 393.62000000000006 C 280.85999999999996 393.95000000000005 280.97999999999996 394.4700000000001 281.05999999999995 394.7800000000001 C 281.13999999999993 395.0800000000001 281.2699999999999 395.5700000000001 281.34999999999997 395.8500000000001 C 281.42999999999995 396.1400000000001 281.58 396.62000000000006 281.67999999999995 396.93000000000006 C 281.7699999999999 397.2300000000001 281.9599999999999 397.7900000000001 282.09999999999997 398.1600000000001 C 282.22999999999996 398.5400000000001 282.43999999999994 399.0700000000001 282.53999999999996 399.3400000000001 C 282.65 399.62000000000006 282.84999999999997 400.0900000000001 282.97999999999996 400.3800000000001 C 283.10999999999996 400.6800000000001 283.35999999999996 401.23000000000013 283.53 401.60000000000014 C 283.71 401.97000000000014 283.97999999999996 402.52000000000015 284.14 402.8100000000001 C 284.28999999999996 403.10000000000014 284.52 403.5200000000001 284.64 403.73000000000013 C 284.76 403.95000000000016 285.01 404.39000000000016 285.21 404.71000000000015 C 285.4 405.03000000000014 285.78999999999996 405.65000000000015 286.08 406.09000000000015 C 286.38 406.53000000000014 286.78 407.1200000000001 286.99 407.40000000000015 C 287.19 407.6800000000001 287.53000000000003 408.14000000000016 287.75 408.41000000000014 C 287.96 408.6800000000001 288.31 409.1200000000001 288.54 409.39000000000016 C 288.76000000000005 409.65000000000015 289.14000000000004 410.09000000000015 289.38 410.3600000000002 C 289.61999999999995 410.6300000000002 290.15999999999997 411.2100000000002 290.59 411.64000000000016 C 291.01 412.07000000000016 291.59999999999997 412.64000000000016 291.88 412.91000000000014 C 292.17 413.17000000000013 292.59 413.54000000000013 292.8 413.73000000000013 C 293.02000000000004 413.91000000000014 293.38 414.22000000000014 293.6 414.40000000000015 C 293.83000000000004 414.58000000000015 294.22 414.89000000000016 294.47 415.09000000000015 C 294.72 415.28000000000014 295.18 415.6200000000001 295.48 415.83000000000015 C 295.78000000000003 416.0500000000002 296.26 416.38000000000017 296.54 416.57000000000016 C 296.83000000000004 416.76000000000016 297.29 417.0600000000002 297.56 417.2300000000002 C 297.84 417.4000000000002 298.28000000000003 417.6600000000002 298.54 417.8100000000002 C 298.81 417.96000000000015 299.27000000000004 418.2200000000002 299.58000000000004 418.38000000000017 C 299.88000000000005 418.5500000000002 300.40000000000003 418.8100000000002 300.73 418.97000000000014 C 301.06 419.14000000000016 301.52000000000004 419.3600000000001 301.77000000000004 419.47000000000014 C 302.01000000000005 419.58000000000015 302.49000000000007 419.79000000000013 302.83000000000004 419.9300000000001 C 303.17 420.0700000000001 303.73 420.29000000000013 304.08000000000004 420.42000000000013 C 304.42 420.5500000000001 304.96000000000004 420.7400000000001 305.27000000000004 420.84000000000015 C 305.58000000000004 420.95000000000016 306.06000000000006 421.10000000000014 306.32000000000005 421.1800000000001 C 306.59000000000003 421.2600000000001 307.05000000000007 421.3900000000001 307.34000000000003 421.47000000000014 C 307.64000000000004 421.5500000000001 308.13000000000005 421.6800000000001 308.44000000000005 421.7500000000001 C 308.75000000000006 421.8200000000001 309.18000000000006 421.92000000000013 309.40000000000003 421.97000000000014 C 309.62 422.02000000000015 310.06000000000006 422.10000000000014 310.37000000000006 422.16000000000014 C 310.68000000000006 422.21000000000015 311.1600000000001 422.29000000000013 311.4200000000001 422.33000000000015 C 311.68000000000006 422.3700000000002 312.1600000000001 422.44000000000017 312.4800000000001 422.48000000000013 C 312.80000000000007 422.5200000000001 313.36000000000007 422.58000000000015 313.7200000000001 422.6100000000001 C 314.0800000000001 422.6400000000001 314.6400000000001 422.6800000000001 314.9600000000001 422.71000000000015 C 315.3100000000001 422.73000000000013 316.1400000000001 422.7400000000001 317.0400000000001 422.7400000000001 C 317.94000000000005 422.7400000000001 318.7800000000001 422.73000000000013 319.12000000000006 422.71000000000015 C 319.45000000000005 422.6800000000002 319.94000000000005 422.65000000000015 320.2200000000001 422.6200000000002 C 320.50000000000006 422.6000000000002 320.9600000000001 422.5600000000002 321.24000000000007 422.52000000000015 C 321.52000000000004 422.4900000000002 322.07000000000005 422.42000000000013 322.4600000000001 422.3600000000001 C 322.8500000000001 422.3100000000001 323.4500000000001 422.21000000000015 323.80000000000007 422.1400000000001 C 324.14000000000004 422.0800000000001 324.70000000000005 421.9700000000001 325.0300000000001 421.8900000000001 C 325.3500000000001 421.8200000000001 325.8800000000001 421.7000000000001 326.1900000000001 421.6200000000001 C 326.5000000000001 421.54000000000013 327.0500000000001 421.3900000000001 327.4000000000001 421.29000000000013 C 327.7500000000001 421.1800000000001 328.2500000000001 421.03000000000014 328.5100000000001 420.95000000000016 C 328.7600000000001 420.8700000000002 329.23000000000013 420.71000000000015 329.5400000000001 420.59000000000015 C 329.86000000000007 420.48000000000013 330.4500000000001 420.26000000000016 330.86000000000007 420.09000000000015 C 331.2700000000001 419.9300000000001 331.9100000000001 419.65000000000015 332.30000000000007 419.48000000000013 C 332.68000000000006 419.3000000000001 333.31000000000006 419.0000000000001 333.69000000000005 418.8100000000001 C 334.08000000000004 418.6100000000001 334.65000000000003 418.3100000000001 334.96000000000004 418.1400000000001 C 335.27000000000004 417.9700000000001 335.79 417.6700000000001 336.11 417.4800000000001 C 336.43 417.2800000000001 337.06 416.8900000000001 337.5 416.6000000000001 C 337.94 416.30000000000007 338.52 415.9000000000001 338.79 415.7100000000001 C 339.06 415.5100000000001 339.53000000000003 415.1600000000001 339.83000000000004 414.9200000000001 C 340.12000000000006 414.69000000000005 340.55000000000007 414.3500000000001 340.77000000000004 414.1600000000001 C 341.00000000000006 413.9700000000001 341.31000000000006 413.7000000000001 341.47 413.56000000000006 C 341.63 413.42 341.97 413.12000000000006 342.22 412.89000000000004 C 342.47 412.67 343.03000000000003 412.11000000000007 343.47 411.67 C 343.91 411.22 344.47 410.63 344.71000000000004 410.36 C 344.95000000000005 410.09000000000003 345.32000000000005 409.66 345.54 409.40000000000003 C 345.75 409.14000000000004 346.09000000000003 408.73 346.29 408.48 C 346.48 408.23 346.83000000000004 407.77000000000004 347.05 407.46000000000004 C 347.28000000000003 407.15000000000003 347.65000000000003 406.62000000000006 347.87 406.29 C 348.09000000000003 405.97 348.4 405.49 348.56 405.23 C 348.72 404.98 348.94 404.61 349.05 404.42 C 349.17 404.22 349.40000000000003 403.82 349.56 403.53000000000003 C 349.73 403.23 350.04 402.63000000000005 350.26 402.19000000000005 C 350.47999999999996 401.75000000000006 350.75 401.18000000000006 350.86 400.94000000000005 C 350.97 400.69000000000005 351.14 400.31000000000006 351.23 400.09000000000003 C 351.33000000000004 399.87 351.5 399.45000000000005 351.61 399.16 C 351.73 398.86 351.93 398.32000000000005 352.06 397.96000000000004 C 352.19 397.6 352.37 397.05 352.47 396.74 C 352.56 396.43 352.70000000000005 395.99 352.76000000000005 395.76 C 352.82000000000005 395.53999999999996 352.94000000000005 395.13 353.01000000000005 394.84999999999997 C 353.08000000000004 394.56999999999994 353.21000000000004 394.01 353.30000000000007 393.60999999999996 C 353.3900000000001 393.2099999999999 353.50000000000006 392.61999999999995 353.56000000000006 392.30999999999995 C 353.62000000000006 391.99999999999994 353.70000000000005 391.53 353.74000000000007 391.25999999999993 C 353.7800000000001 390.99999999999994 353.8400000000001 390.5199999999999 353.88000000000005 390.19999999999993 C 353.92 389.87999999999994 353.9800000000001 389.31999999999994 354.01000000000005 388.9599999999999 C 354.05000000000007 388.5999999999999 354.09000000000003 388.0399999999999 354.11000000000007 387.7199999999999 C 354.13000000000005 387.3699999999999 354.1500000000001 386.5399999999999 354.1500000000001 385.63999999999993 C 354.1500000000001 384.73999999999995 354.1300000000001 383.8999999999999 354.11000000000007 383.54999999999995 C 354.0900000000001 383.22999999999996 354.05000000000007 382.67999999999995 354.01000000000005 382.31999999999994 C 353.9800000000001 381.9599999999999 353.9200000000001 381.3999999999999 353.88000000000005 381.0799999999999 C 353.84000000000003 380.75999999999993 353.78000000000003 380.2799999999999 353.74000000000007 380.0199999999999 C 353.70000000000005 379.74999999999994 353.62000000000006 379.2799999999999 353.56000000000006 378.9699999999999 C 353.50000000000006 378.6499999999999 353.4200000000001 378.2199999999999 353.38000000000005 378.00999999999993 C 353.33000000000004 377.7899999999999 353.24000000000007 377.4099999999999 353.19000000000005 377.1599999999999 C 353.13000000000005 376.9099999999999 353.0400000000001 376.5299999999999 352.9800000000001 376.3099999999999 C 352.9200000000001 376.0999999999999 352.82000000000005 375.7399999999999 352.76000000000005 375.5099999999999 C 352.70000000000005 375.28999999999985 352.56000000000006 374.84999999999985 352.47 374.53999999999985 C 352.37 374.21999999999986 352.19000000000005 373.66999999999985 352.06 373.30999999999983 C 351.92999999999995 372.9499999999998 351.72 372.3799999999998 351.58 372.04999999999984 C 351.45 371.70999999999987 351.24 371.1899999999998 351.10999999999996 370.8899999999998 C 350.9799999999999 370.5899999999998 350.72999999999996 370.04999999999984 350.55999999999995 369.6999999999998 C 350.38999999999993 369.3399999999998 350.12999999999994 368.80999999999983 349.96999999999997 368.5099999999998 C 349.81 368.2099999999998 349.60999999999996 367.8399999999998 349.53 367.6899999999998 C 349.45 367.53999999999985 349.26 367.2099999999998 349.10999999999996 366.9599999999998 C 348.96999999999997 366.7099999999998 348.71999999999997 366.2999999999998 348.55999999999995 366.0399999999998 C 348.3999999999999 365.7899999999998 348.10999999999996 365.3399999999998 347.91999999999996 365.0499999999998 C 347.71999999999997 364.75999999999976 347.4 364.2899999999998 347.18999999999994 363.9999999999998 C 346.97999999999996 363.7199999999998 346.6499999999999 363.26999999999975 346.44999999999993 362.9999999999998 C 346.23999999999995 362.7399999999998 345.86999999999995 362.27999999999975 345.60999999999996 361.9699999999998 C 345.34999999999997 361.65999999999985 344.94999999999993 361.1799999999998 344.71 360.9099999999998 C 344.47 360.6399999999998 343.82 359.9699999999998 343.27 359.4099999999998 C 342.71 358.8599999999998 342.03 358.1999999999998 341.75 357.9599999999998 C 341.47 357.7099999999998 341.03 357.3199999999998 340.76 357.0999999999998 C 340.5 356.87999999999977 340.09 356.5599999999998 339.86 356.37999999999977 C 339.62 356.18999999999977 339.2 355.8699999999998 338.91 355.65999999999974 C 338.62000000000006 355.4499999999997 338 355.01999999999975 337.54 354.70999999999975 C 337.07 354.39999999999975 336.43 353.9899999999997 336.11 353.7999999999997 C 335.79 353.60999999999973 335.35 353.34999999999974 335.14 353.22999999999973 C 334.91999999999996 353.10999999999973 334.51 352.88999999999976 334.22999999999996 352.7399999999997 C 333.94999999999993 352.5899999999997 333.48999999999995 352.35999999999973 333.21 352.21999999999974 C 332.93 352.08999999999975 332.45 351.8699999999997 332.15 351.72999999999973 C 331.84999999999997 351.59999999999974 331.33 351.3799999999997 331 351.2399999999997 C 330.67 351.10999999999973 330.24 350.9399999999997 330.04 350.85999999999973 C 329.84000000000003 350.78999999999974 329.43 350.6399999999997 329.13 350.53999999999974 C 328.84 350.4399999999997 328.28 350.2499999999997 327.89 350.1299999999997 C 327.51 350.0199999999997 326.89 349.8399999999997 326.52 349.7399999999997 C 326.15999999999997 349.64999999999975 325.59 349.5099999999997 325.27 349.4399999999997 C 324.95 349.35999999999973 324.34999999999997 349.2399999999997 323.91999999999996 349.15999999999974 C 323.49999999999994 349.07999999999976 322.84 348.96999999999974 322.44999999999993 348.90999999999974 C 322.05999999999995 348.85999999999973 321.5199999999999 348.78999999999974 321.23999999999995 348.7499999999997 C 320.96 348.71999999999974 320.48999999999995 348.66999999999973 320.19999999999993 348.6499999999997 C 319.9099999999999 348.62999999999965 319.4699999999999 348.5899999999997 319.2099999999999 348.5799999999997 C 318.9599999999999 348.5599999999997 318.11999999999995 348.5399999999997 317.3499999999999 348.5399999999997 z M 316.91 352.31 C 317.26000000000005 352.31 317.87 352.32 318.27000000000004 352.34 C 318.66 352.34999999999997 319.18000000000006 352.38 319.42 352.39 C 319.66 352.40999999999997 320.11 352.45 320.42 352.47999999999996 C 320.73 352.52 321.23 352.56999999999994 321.53000000000003 352.61999999999995 C 321.83000000000004 352.65999999999997 322.3 352.72999999999996 322.58000000000004 352.7699999999999 C 322.86 352.81999999999994 323.39000000000004 352.9199999999999 323.75000000000006 352.98999999999995 C 324.11000000000007 353.06 324.6700000000001 353.18999999999994 325.00000000000006 353.2699999999999 C 325.32000000000005 353.3499999999999 325.89000000000004 353.49999999999994 326.25000000000006 353.6099999999999 C 326.61000000000007 353.7099999999999 327.1700000000001 353.8799999999999 327.50000000000006 353.9899999999999 C 327.83000000000004 354.0999999999999 328.36000000000007 354.2899999999999 328.6700000000001 354.3999999999999 C 328.9800000000001 354.5199999999999 329.4700000000001 354.7099999999999 329.75000000000006 354.8299999999999 C 330.03000000000003 354.93999999999994 330.4800000000001 355.13999999999993 330.75000000000006 355.25999999999993 C 331.02000000000004 355.38999999999993 331.61000000000007 355.66999999999996 332.05000000000007 355.88999999999993 C 332.49000000000007 356.1099999999999 333.14000000000004 356.4599999999999 333.50000000000006 356.6699999999999 C 333.86000000000007 356.8799999999999 334.38000000000005 357.1799999999999 334.64000000000004 357.3499999999999 C 334.90000000000003 357.50999999999993 335.36000000000007 357.8099999999999 335.66 358.00999999999993 C 335.96 358.21 336.38000000000005 358.49999999999994 336.59000000000003 358.6599999999999 C 336.81000000000006 358.81999999999994 337.20000000000005 359.1099999999999 337.45000000000005 359.3099999999999 C 337.71000000000004 359.5099999999999 338.12000000000006 359.83999999999986 338.37000000000006 360.0499999999999 C 338.62000000000006 360.25999999999993 339.01000000000005 360.5999999999999 339.24000000000007 360.7999999999999 C 339.4800000000001 361.0099999999999 339.99000000000007 361.4999999999999 340.39000000000004 361.8899999999999 C 340.79 362.28999999999985 341.30000000000007 362.8099999999999 341.53000000000003 363.0599999999999 C 341.76 363.3099999999999 342.12 363.70999999999987 342.34000000000003 363.95999999999987 C 342.55 364.20999999999987 342.90000000000003 364.6399999999999 343.12 364.90999999999985 C 343.34000000000003 365.1899999999998 343.66 365.60999999999984 343.84000000000003 365.83999999999986 C 344.01000000000005 366.07999999999987 344.31000000000006 366.4999999999999 344.51000000000005 366.78999999999985 C 344.70000000000005 367.0699999999998 345.03000000000003 367.5699999999998 345.24000000000007 367.89999999999986 C 345.4500000000001 368.2299999999999 345.7900000000001 368.79999999999984 346.00000000000006 369.15999999999985 C 346.21000000000004 369.52999999999986 346.59000000000003 370.24999999999983 346.8500000000001 370.74999999999983 C 347.1000000000001 371.24999999999983 347.4200000000001 371.92999999999984 347.56000000000006 372.23999999999984 C 347.70000000000005 372.55999999999983 347.9100000000001 373.05999999999983 348.0300000000001 373.35999999999984 C 348.1400000000001 373.65999999999985 348.3300000000001 374.14999999999986 348.43000000000006 374.4399999999998 C 348.5400000000001 374.72999999999985 348.71000000000004 375.23999999999984 348.81000000000006 375.5799999999998 C 348.9200000000001 375.9099999999998 349.09000000000003 376.4699999999998 349.18000000000006 376.8199999999998 C 349.2800000000001 377.17999999999984 349.4100000000001 377.6899999999998 349.4800000000001 377.9599999999998 C 349.5400000000001 378.2299999999998 349.6400000000001 378.7099999999998 349.7100000000001 379.0199999999998 C 349.7700000000001 379.3399999999998 349.8700000000001 379.8599999999998 349.9200000000001 380.1899999999998 C 349.9800000000001 380.5199999999998 350.06000000000006 381.10999999999984 350.11000000000007 381.49999999999983 C 350.1600000000001 381.8999999999998 350.2200000000001 382.4399999999998 350.24000000000007 382.71999999999986 C 350.27000000000004 382.99999999999983 350.30000000000007 383.45999999999987 350.31000000000006 383.72999999999985 C 350.33000000000004 383.99999999999983 350.3500000000001 384.60999999999984 350.36000000000007 385.07999999999987 C 350.37000000000006 385.58999999999986 350.37000000000006 386.28999999999985 350.3500000000001 386.77999999999986 C 350.3300000000001 387.22999999999985 350.30000000000007 387.78999999999985 350.2900000000001 388.0099999999999 C 350.2700000000001 388.2399999999999 350.2300000000001 388.6799999999999 350.2000000000001 388.9999999999999 C 350.17000000000013 389.3199999999999 350.1100000000001 389.82999999999987 350.0700000000001 390.1199999999999 C 350.0300000000001 390.4199999999999 349.9600000000001 390.8599999999999 349.92000000000013 391.0999999999999 C 349.88000000000017 391.3399999999999 349.8000000000001 391.7699999999999 349.7400000000001 392.0599999999999 C 349.6900000000001 392.3499999999999 349.5800000000001 392.83999999999986 349.5100000000001 393.14999999999986 C 349.4400000000001 393.46999999999986 349.3100000000001 393.98999999999984 349.2200000000001 394.3199999999999 C 349.13000000000005 394.6499999999999 348.9800000000001 395.1899999999999 348.87000000000006 395.51999999999987 C 348.77000000000004 395.83999999999986 348.62000000000006 396.3199999999999 348.5300000000001 396.5699999999999 C 348.4400000000001 396.8199999999999 348.2700000000001 397.27999999999986 348.1600000000001 397.57999999999987 C 348.0400000000001 397.8799999999999 347.8500000000001 398.34999999999985 347.74000000000007 398.6199999999999 C 347.62000000000006 398.8899999999999 347.44000000000005 399.2899999999999 347.3500000000001 399.4999999999999 C 347.25000000000006 399.70999999999987 347.0100000000001 400.20999999999987 346.81000000000006 400.6099999999999 C 346.61000000000007 400.9999999999999 346.33000000000004 401.5299999999999 346.19000000000005 401.7799999999999 C 346.05000000000007 402.0299999999999 345.82000000000005 402.43999999999994 345.6600000000001 402.69999999999993 C 345.5100000000001 402.94999999999993 345.24000000000007 403.38999999999993 345.06000000000006 403.6599999999999 C 344.89000000000004 403.9299999999999 344.61000000000007 404.3399999999999 344.45000000000005 404.5799999999999 C 344.29 404.80999999999995 343.97 405.24999999999994 343.75000000000006 405.54999999999995 C 343.52000000000004 405.85999999999996 343.15000000000003 406.3299999999999 342.9200000000001 406.60999999999996 C 342.70000000000005 406.88999999999993 342.3400000000001 407.30999999999995 342.1400000000001 407.53999999999996 C 341.9300000000001 407.78 341.5800000000001 408.16999999999996 341.3500000000001 408.40999999999997 C 341.13000000000005 408.65 340.6600000000001 409.11999999999995 340.3200000000001 409.46 C 339.98000000000013 409.78999999999996 339.5200000000001 410.22999999999996 339.3000000000001 410.41999999999996 C 339.09000000000015 410.60999999999996 338.73000000000013 410.91999999999996 338.52000000000015 411.10999999999996 C 338.3000000000001 411.28999999999996 337.94000000000017 411.58 337.71000000000015 411.75999999999993 C 337.4900000000001 411.93999999999994 337.10000000000014 412.22999999999996 336.8600000000001 412.41999999999996 C 336.6100000000001 412.59999999999997 336.1900000000001 412.9 335.9400000000001 413.08 C 335.6800000000001 413.25 335.2700000000001 413.53 335.0200000000001 413.69 C 334.7700000000001 413.85 334.3700000000001 414.1 334.1300000000001 414.24 C 333.8900000000001 414.39 333.4700000000001 414.62 333.2100000000001 414.77 C 332.9500000000001 414.91999999999996 332.4000000000001 415.21 331.99000000000007 415.40999999999997 C 331.58000000000004 415.61999999999995 331.02000000000004 415.89 330.75000000000006 416.01 C 330.4800000000001 416.14 330.03000000000003 416.33 329.75000000000006 416.45 C 329.4700000000001 416.57 328.9800000000001 416.76 328.6700000000001 416.87 C 328.36000000000007 416.99 327.82000000000005 417.18 327.49000000000007 417.29 C 327.1500000000001 417.40000000000003 326.5900000000001 417.57 326.2300000000001 417.67 C 325.88000000000005 417.77000000000004 325.32000000000005 417.92 325.00000000000006 418 C 324.6700000000001 418.08 324.11000000000007 418.21 323.76000000000005 418.28 C 323.41 418.34999999999997 322.83000000000004 418.46 322.49000000000007 418.52 C 322.1500000000001 418.57 321.61000000000007 418.65 321.31000000000006 418.69 C 321.00000000000006 418.73 320.46000000000004 418.79 320.11000000000007 418.82 C 319.7600000000001 418.84999999999997 319.2100000000001 418.9 318.89000000000004 418.92 C 318.57 418.94000000000005 317.74000000000007 418.95 317.04 418.95 C 316.35 418.95 315.51000000000005 418.94 315.19 418.92 C 314.86999999999995 418.90000000000003 314.33 418.85 313.98 418.82 C 313.64000000000004 418.79 313.09000000000003 418.73 312.77000000000004 418.69 C 312.45000000000005 418.65 311.96000000000004 418.58 311.67 418.53 C 311.38 418.47999999999996 310.91 418.4 310.62 418.34 C 310.33 418.28 309.95 418.2 309.77 418.15999999999997 C 309.59999999999997 418.11999999999995 309.21999999999997 418.03 308.93 417.96 C 308.64000000000004 417.89 308.24 417.78 308.04 417.72999999999996 C 307.84000000000003 417.66999999999996 307.40000000000003 417.53999999999996 307.06 417.43999999999994 C 306.73 417.3299999999999 306.15 417.13999999999993 305.78000000000003 416.99999999999994 C 305.41 416.86999999999995 304.90000000000003 416.66999999999996 304.63000000000005 416.56999999999994 C 304.37000000000006 416.4599999999999 303.91 416.2699999999999 303.61000000000007 416.12999999999994 C 303.32000000000005 415.99999999999994 302.74000000000007 415.72999999999996 302.32000000000005 415.5299999999999 C 301.91 415.31999999999994 301.36000000000007 415.0399999999999 301.09000000000003 414.88999999999993 C 300.83000000000004 414.73999999999995 300.36 414.4799999999999 300.06000000000006 414.29999999999995 C 299.7600000000001 414.12 299.2800000000001 413.81999999999994 298.99000000000007 413.63999999999993 C 298.70000000000005 413.44999999999993 298.27000000000004 413.1599999999999 298.02000000000004 412.9799999999999 C 297.77000000000004 412.8099999999999 297.36 412.5199999999999 297.11 412.3299999999999 C 296.86 412.1499999999999 296.47 411.8399999999999 296.24 411.6499999999999 C 296.01 411.4699999999999 295.58 411.1099999999999 295.29 410.8599999999999 C 295 410.6199999999999 294.56 410.2199999999999 294.3 409.9699999999999 C 294.04 409.7299999999999 293.56 409.25999999999993 293.22 408.9099999999999 C 292.89000000000004 408.56999999999994 292.45000000000005 408.1099999999999 292.26000000000005 407.8999999999999 C 292.07000000000005 407.6799999999999 291.79 407.3599999999999 291.64000000000004 407.1799999999999 C 291.49000000000007 407.0099999999999 291.18000000000006 406.6399999999999 290.96000000000004 406.3599999999999 C 290.74 406.0899999999999 290.42 405.6699999999999 290.25000000000006 405.4299999999999 C 290.07000000000005 405.1999999999999 289.77000000000004 404.76999999999987 289.58000000000004 404.4899999999999 C 289.38000000000005 404.2099999999999 289.05000000000007 403.7099999999999 288.84000000000003 403.3799999999999 C 288.64000000000004 403.0499999999999 288.29 402.4799999999999 288.08000000000004 402.1099999999999 C 287.87000000000006 401.7499999999999 287.49000000000007 401.0299999999999 287.24000000000007 400.5299999999999 C 286.99000000000007 400.0199999999999 286.6700000000001 399.3499999999999 286.5300000000001 399.0399999999999 C 286.3900000000001 398.7199999999999 286.18000000000006 398.2199999999999 286.06000000000006 397.9099999999999 C 285.94000000000005 397.6099999999999 285.76000000000005 397.12999999999994 285.65000000000003 396.8399999999999 C 285.55 396.5499999999999 285.40000000000003 396.12999999999994 285.33000000000004 395.88999999999993 C 285.26000000000005 395.6599999999999 285.11 395.17999999999995 285.01000000000005 394.8299999999999 C 284.9100000000001 394.4799999999999 284.76000000000005 393.9199999999999 284.68000000000006 393.5899999999999 C 284.6000000000001 393.25999999999993 284.46000000000004 392.6699999999999 284.38000000000005 392.2799999999999 C 284.31000000000006 391.88999999999993 284.20000000000005 391.31999999999994 284.15000000000003 391.00999999999993 C 284.1 390.7099999999999 284.03000000000003 390.2099999999999 283.99 389.8999999999999 C 283.95 389.5899999999999 283.89 389.05999999999995 283.86 388.7099999999999 C 283.83000000000004 388.3599999999999 283.78000000000003 387.80999999999995 283.76 387.4899999999999 C 283.73999999999995 387.16999999999985 283.73 386.32999999999987 283.73 385.6199999999999 C 283.73 384.9199999999999 283.75 384.0899999999999 283.77000000000004 383.76999999999987 C 283.79 383.45999999999987 283.83000000000004 382.91999999999985 283.86 382.5699999999999 C 283.89 382.2199999999999 283.95 381.6799999999999 283.99 381.3799999999999 C 284.03000000000003 381.0699999999999 284.1 380.5699999999999 284.15000000000003 380.2599999999999 C 284.20000000000005 379.95999999999987 284.31000000000006 379.3899999999999 284.38000000000005 378.9999999999999 C 284.46000000000004 378.5999999999999 284.6000000000001 378.0099999999999 284.68000000000006 377.6899999999999 C 284.76000000000005 377.3599999999999 284.9100000000001 376.7999999999999 285.01000000000005 376.4499999999999 C 285.11000000000007 376.08999999999986 285.26000000000005 375.6199999999999 285.33000000000004 375.3799999999999 C 285.40000000000003 375.14999999999986 285.55000000000007 374.71999999999986 285.65000000000003 374.4399999999999 C 285.76000000000005 374.14999999999986 285.94000000000005 373.6599999999999 286.06000000000006 373.3599999999999 C 286.18000000000006 373.0599999999999 286.39000000000004 372.5599999999999 286.5300000000001 372.2399999999999 C 286.6700000000001 371.9299999999999 286.99000000000007 371.2499999999999 287.24000000000007 370.7499999999999 C 287.49000000000007 370.2499999999999 287.87000000000006 369.52999999999986 288.08000000000004 369.1699999999999 C 288.29 368.7999999999999 288.62000000000006 368.2399999999999 288.82000000000005 367.9299999999999 C 289.02000000000004 367.6099999999999 289.35 367.1199999999999 289.55000000000007 366.8199999999999 C 289.75000000000006 366.52999999999986 290.07000000000005 366.08999999999986 290.25000000000006 365.82999999999987 C 290.44000000000005 365.57999999999987 290.77000000000004 365.15999999999985 290.9800000000001 364.8899999999999 C 291.19000000000005 364.6299999999999 291.5300000000001 364.21999999999986 291.7200000000001 363.9899999999999 C 291.9200000000001 363.7599999999999 292.2200000000001 363.4199999999999 292.3800000000001 363.2499999999999 C 292.54000000000013 363.0699999999999 292.9300000000001 362.6599999999999 293.2500000000001 362.32999999999987 C 293.5700000000001 362.0099999999999 294.0300000000001 361.5499999999999 294.2700000000001 361.32999999999987 C 294.5100000000001 361.09999999999985 294.86000000000007 360.77999999999986 295.0400000000001 360.6199999999999 C 295.2300000000001 360.45999999999987 295.5900000000001 360.1599999999999 295.8400000000001 359.9499999999999 C 296.1000000000001 359.72999999999985 296.5000000000001 359.40999999999985 296.7300000000001 359.2399999999999 C 296.9600000000001 359.0599999999999 297.38000000000005 358.7399999999999 297.68000000000006 358.5399999999999 C 297.9700000000001 358.3299999999999 298.45000000000005 357.9899999999999 298.75000000000006 357.7999999999999 C 299.0400000000001 357.5999999999999 299.58000000000004 357.2599999999999 299.94000000000005 357.0499999999999 C 300.30000000000007 356.82999999999987 300.82000000000005 356.5399999999999 301.09000000000003 356.3899999999999 C 301.36 356.23999999999984 301.91 355.9499999999999 302.32000000000005 355.7499999999999 C 302.74000000000007 355.5499999999999 303.31000000000006 355.26999999999987 303.61000000000007 355.1399999999999 C 303.9100000000001 355.0099999999999 304.37000000000006 354.8199999999999 304.63000000000005 354.70999999999987 C 304.90000000000003 354.59999999999985 305.41 354.40999999999985 305.78000000000003 354.26999999999987 C 306.15000000000003 354.1399999999999 306.69000000000005 353.95999999999987 306.98 353.8699999999999 C 307.26 353.7799999999999 307.70000000000005 353.6399999999999 307.95000000000005 353.5699999999999 C 308.20000000000005 353.4999999999999 308.55000000000007 353.40999999999985 308.74000000000007 353.3599999999999 C 308.9200000000001 353.3099999999999 309.30000000000007 353.2199999999999 309.58000000000004 353.1499999999999 C 309.86 353.0899999999999 310.33000000000004 352.9899999999999 310.62000000000006 352.93999999999994 C 310.9100000000001 352.87999999999994 311.38000000000005 352.78999999999996 311.6700000000001 352.74999999999994 C 311.95000000000005 352.69999999999993 312.45000000000005 352.62999999999994 312.7700000000001 352.5899999999999 C 313.0900000000001 352.5399999999999 313.6300000000001 352.4899999999999 313.9700000000001 352.4599999999999 C 314.31000000000006 352.4199999999999 314.86000000000007 352.37999999999994 315.1900000000001 352.36999999999995 C 315.5300000000001 352.34999999999997 315.91000000000014 352.3299999999999 316.04000000000013 352.3299999999999 C 316.17000000000013 352.31999999999994 316.5600000000001 352.31999999999994 316.91000000000014 352.30999999999995 z M 307.90000000000003 375.24 C 307.88000000000005 375.24 307.28000000000003 375.83 306.56000000000006 376.56 C 305.8500000000001 377.29 305.25000000000006 377.9 305.25000000000006 377.91 C 305.25000000000006 377.93 306.99000000000007 379.67 309.12000000000006 381.78000000000003 C 311.25000000000006 383.89000000000004 312.99000000000007 385.63000000000005 312.9800000000001 385.64000000000004 C 312.9800000000001 385.65000000000003 311.24000000000007 387.39000000000004 309.11000000000007 389.50000000000006 C 306.9800000000001 391.61000000000007 305.24000000000007 393.3500000000001 305.24000000000007 393.36000000000007 C 305.25000000000006 393.37000000000006 305.8400000000001 393.9800000000001 306.57000000000005 394.7100000000001 L 307.89000000000004 396.05000000000007 L 310.38000000000005 393.5900000000001 C 311.74000000000007 392.2300000000001 314.1000000000001 389.8800000000001 315.62000000000006 388.37000000000006 L 318.39000000000004 385.62000000000006 L 313.15000000000003 380.44000000000005 C 310.28000000000003 377.58000000000004 307.91 375.24000000000007 307.90000000000003 375.24000000000007 z M 463.02000000000004 380.1 C 461.14000000000004 380.1 459.68000000000006 381.69 459.68000000000006 383.44 C 459.68000000000006 385.19 461.14000000000004 386.77 463.02000000000004 386.77 L 503.74 386.77 C 505.6 386.77 507.07 385.29999999999995 507.07 383.44 C 507.07 381.57 505.59999999999997 380.1 503.74 380.1 L 463.02 380.1 z M 797.36 380.1 C 795.48 380.1 794.02 381.69 794.02 383.44 C 794.02 385.19 795.48 386.77 797.36 386.77 L 838.07 386.77 C 839.9300000000001 386.77 841.4100000000001 385.29999999999995 841.4100000000001 383.44 C 841.4100000000001 381.57 839.9300000000001 380.1 838.07 380.1 L 797.36 380.1 z M 317.6 392.81 L 317.6 396.59 L 331.73 396.59 L 331.73 392.81 L 324.66 392.81 L 317.6 392.81 z M 648.71 396.62 C 646.96 396.62 645.38 397.99 645.38 399.85 C 645.38 401.73 646.96 403.19 648.71 403.19 L 673.6600000000001 403.19 C 675.44 403.19 677.0000000000001 401.63 677.0000000000001 399.85 C 677.0000000000001 398.1 675.4400000000002 396.62 673.6600000000001 396.62 L 648.71 396.62 z M 463.02000000000004 416.71 C 461.24000000000007 416.71 459.68000000000006 418.27 459.68000000000006 420.04999999999995 C 459.68000000000006 421.79999999999995 461.24000000000007 423.28 463.02000000000004 423.28 L 504.49 423.28 C 506.24 423.28 507.83 421.90999999999997 507.83 420.04999999999995 C 507.83 418.16999999999996 506.24 416.71 504.49 416.71 L 463.02 416.71 z M 797.36 416.71 C 795.58 416.71 794.02 418.27 794.02 420.04999999999995 C 794.02 421.79999999999995 795.5799999999999 423.28 797.36 423.28 L 838.83 423.28 C 840.58 423.28 842.1600000000001 421.90999999999997 842.1600000000001 420.04999999999995 C 842.1600000000001 418.16999999999996 840.58 416.71 838.83 416.71 L 797.36 416.71 z" stroke-linecap="round" />
</g>
</svg>