<svg width="790" height="184" viewBox="0 0 790 184" fill="none" xmlns="http://www.w3.org/2000/svg">
<path d="M72.9405 30.5504L94.9684 155.477M125.804 38.505L142.19 131.438M45.0395 136.207L73.1651 31.2403M94.025 155.188L125.348 38.2889M156 92C156 127.346 127.346 156 92 156C56.6538 156 28 127.346 28 92C28 56.6538 56.6538 28 92 28C127.346 28 156 56.6538 156 92Z" stroke="black" stroke-width="6"/>
<path d="M224.933 67.625C228.812 67.625 231.908 68.3409 234.222 69.7727C236.536 71.1364 238.373 73.4545 239.734 76.7273C245.723 70.6591 252.188 67.625 259.129 67.625C261.851 67.625 264.165 68.0341 266.07 68.8523C268.044 69.6705 269.643 70.7955 270.868 72.2273C272.161 73.6591 273.08 75.3977 273.624 77.4432C274.237 79.4205 274.543 81.6023 274.543 83.9886V101.375C274.543 103.966 275.053 106.045 276.074 107.614C277.095 109.114 279.034 109.932 281.892 110.068V114.875H253.107V110.068C255.761 109.591 257.53 108.636 258.415 107.205C259.367 105.705 259.844 103.318 259.844 100.045V86.2386C259.844 83.2386 259.163 80.9205 257.802 79.2841C256.441 77.6477 254.4 76.8295 251.677 76.8295C247.458 76.8295 243.783 78.2955 240.653 81.2273V101.784C240.653 104.92 241.197 107.068 242.286 108.227C243.443 109.318 245.451 109.932 248.309 110.068V114.875H219.217V110.068C220.714 109.932 221.905 109.591 222.789 109.045C223.742 108.5 224.423 107.784 224.831 106.898C225.307 106.011 225.614 104.955 225.75 103.727C225.886 102.432 225.954 100.966 225.954 99.3295V85.0114C225.954 82.3523 225.171 80.3409 223.606 78.9773C222.109 77.5455 220.169 76.8295 217.788 76.8295C215.746 76.8295 213.705 77.2727 211.663 78.1591C209.621 78.9773 207.988 80.1023 206.763 81.5341V101.17C206.763 103.898 207.274 106.08 208.294 107.716C209.315 109.284 211.357 110.068 214.419 110.068V114.875H185.327V110.068C186.62 109.864 187.675 109.591 188.491 109.25C189.376 108.841 190.057 108.295 190.533 107.614C191.077 106.864 191.452 105.909 191.656 104.75C191.928 103.523 192.064 101.989 192.064 100.148V81.5341L184 76.3182V73.0455L201.557 67.9318H206.763V76.3182C210.098 73.1818 213.126 70.9659 215.848 69.6705C218.57 68.3068 221.599 67.625 224.933 67.625Z" fill="black"/>
<path d="M302.667 88.8977C302.667 96.3295 303.483 101.92 305.117 105.67C306.75 109.352 309.404 111.193 313.079 111.193C315.801 111.193 317.944 110.068 319.51 107.818C321.075 105.5 321.857 102.091 321.857 97.5909C321.857 89.6136 321.041 83.4432 319.408 79.0795C317.774 74.6477 315.12 72.4318 311.445 72.4318C308.383 72.4318 306.137 73.7273 304.708 76.3182C303.347 78.9091 302.667 83.1023 302.667 88.8977ZM312.977 67.625C317.536 67.625 321.381 68.4091 324.511 69.9773C327.642 71.4773 330.16 73.4205 332.065 75.8068C334.039 78.125 335.468 80.7159 336.352 83.5795C337.237 86.4432 337.679 89.2045 337.679 91.8636C337.679 95.1364 337.135 98.2386 336.046 101.17C335.025 104.102 333.426 106.693 331.249 108.943C329.139 111.125 326.451 112.864 323.184 114.159C319.986 115.386 316.209 116 311.854 116C308.043 116 304.606 115.42 301.544 114.261C298.482 113.102 295.862 111.5 293.684 109.455C291.506 107.409 289.805 104.955 288.58 102.091C287.423 99.2273 286.845 96.0909 286.845 92.6818C286.845 89.5455 287.389 86.4773 288.478 83.4773C289.567 80.4091 291.2 77.7159 293.378 75.3977C295.555 73.0795 298.277 71.2045 301.544 69.7727C304.81 68.3409 308.621 67.625 312.977 67.625Z" fill="black"/>
<path d="M367.138 68.8523V73.6591C363.804 73.7955 362.137 74.8523 362.137 76.8295C362.137 77.2386 362.239 77.8182 362.443 78.5682C362.647 79.3182 363.123 80.4432 363.872 81.9432L373.161 100.045C374.862 96.7727 376.291 93.9773 377.448 91.6591C378.673 89.3409 379.66 87.4318 380.408 85.9318C381.906 83 382.654 80.5795 382.654 78.6705C382.654 77.1705 382.212 76.0114 381.327 75.1932C380.442 74.3068 379.013 73.7955 377.04 73.6591V68.8523H395.006V73.6591C393.713 74.0682 392.624 74.7841 391.739 75.8068C390.922 76.7614 390.14 77.9886 389.391 79.4886L370.915 116H364.893L347.744 81.7386C346.655 79.5568 345.872 78.0568 345.396 77.2386C344.919 76.3523 344.477 75.7045 344.069 75.2955C343.524 74.75 342.98 74.3409 342.436 74.0682C341.959 73.7955 341.313 73.6591 340.496 73.6591V68.8523H367.138Z" fill="black"/>
<path d="M427.717 83.8864C427.717 80.2045 427.003 77.375 425.574 75.3977C424.145 73.4205 422.103 72.4318 419.449 72.4318C416.999 72.4318 414.958 73.4545 413.324 75.5C411.691 77.4773 410.875 80.2727 410.875 83.8864H427.717ZM421.797 67.625C428.398 67.625 433.638 69.5 437.517 73.25C441.396 77 443.403 82.1477 443.539 88.6932H411.181C411.317 90.875 411.827 92.9545 412.712 94.9318C413.597 96.9091 414.754 98.6818 416.183 100.25C417.68 101.75 419.381 102.977 421.287 103.932C423.192 104.818 425.268 105.261 427.513 105.261C428.534 105.261 429.487 105.193 430.371 105.057C431.256 104.852 432.175 104.545 433.128 104.136C434.08 103.727 435.067 103.216 436.088 102.602C437.109 101.989 438.265 101.205 439.558 100.25L443.539 103.216C440.137 107.58 436.462 110.818 432.515 112.932C428.636 114.977 424.247 116 419.347 116C415.876 116 412.78 115.455 410.058 114.364C407.336 113.205 404.988 111.602 403.015 109.557C401.109 107.511 399.646 105.091 398.625 102.295C397.605 99.4318 397.094 96.2955 397.094 92.8864C397.094 89.2727 397.673 85.9318 398.829 82.8636C399.986 79.7273 401.62 77.0341 403.729 74.7841C405.907 72.5341 408.493 70.7955 411.487 69.5682C414.549 68.2727 417.986 67.625 421.797 67.625Z" fill="black"/>
<path d="M488.401 67.625C492.28 67.625 495.376 68.3409 497.69 69.7727C500.004 71.1364 501.841 73.4545 503.202 76.7273C509.191 70.6591 515.656 67.625 522.597 67.625C525.319 67.625 527.633 68.0341 529.538 68.8523C531.512 69.6705 533.111 70.7955 534.336 72.2273C535.629 73.6591 536.548 75.3977 537.092 77.4432C537.704 79.4205 538.011 81.6023 538.011 83.9886V101.375C538.011 103.966 538.521 106.045 539.542 107.614C540.563 109.114 542.502 109.932 545.36 110.068V114.875H516.574V110.068C519.228 109.591 520.998 108.636 521.882 107.205C522.835 105.705 523.311 103.318 523.311 100.045V86.2386C523.311 83.2386 522.631 80.9205 521.27 79.2841C519.909 77.6477 517.867 76.8295 515.145 76.8295C510.926 76.8295 507.251 78.2955 504.121 81.2273V101.784C504.121 104.92 504.665 107.068 505.754 108.227C506.911 109.318 508.919 109.932 511.777 110.068V114.875H482.685V110.068C484.182 109.932 485.373 109.591 486.257 109.045C487.21 108.5 487.891 107.784 488.299 106.898C488.775 106.011 489.081 104.955 489.218 103.727C489.354 102.432 489.422 100.966 489.422 99.3295V85.0114C489.422 82.3523 488.639 80.3409 487.074 78.9773C485.577 77.5455 483.637 76.8295 481.256 76.8295C479.214 76.8295 477.172 77.2727 475.131 78.1591C473.089 78.9773 471.456 80.1023 470.231 81.5341V101.17C470.231 103.898 470.742 106.08 471.762 107.716C472.783 109.284 474.825 110.068 477.887 110.068V114.875H448.795V110.068C450.088 109.864 451.143 109.591 451.959 109.25C452.844 108.841 453.524 108.295 454.001 107.614C454.545 106.864 454.919 105.909 455.124 104.75C455.396 103.523 455.532 101.989 455.532 100.148V81.5341L447.468 76.3182V73.0455L465.025 67.9318H470.231V76.3182C473.566 73.1818 476.594 70.9659 479.316 69.6705C482.038 68.3068 485.066 67.625 488.401 67.625Z" fill="black"/>
<path d="M565.726 101.784C565.726 103.693 566.271 105.295 567.36 106.591C568.516 107.886 569.912 108.534 571.545 108.534C572.838 108.534 574.165 108.193 575.526 107.511C576.887 106.83 578.588 105.705 580.63 104.136V91.4545L577.465 92.375C573.45 93.5341 570.49 94.7955 568.584 96.1591C566.679 97.5227 565.726 99.3977 565.726 101.784ZM575.934 67.625C582.943 67.625 587.911 68.6477 590.837 70.6932C593.832 72.7386 595.329 75.875 595.329 80.1023V101.375C595.329 102.602 595.533 103.591 595.941 104.341C596.35 105.023 597.03 105.364 597.983 105.364C598.527 105.364 599.106 105.261 599.718 105.057C600.399 104.784 601.045 104.477 601.658 104.136L602.474 109.148C601.045 111.33 599.276 113.034 597.166 114.261C595.125 115.42 593.015 116 590.837 116C588.251 116 586.142 115.455 584.509 114.364C582.875 113.205 581.582 111.466 580.63 109.148C577.84 111.739 575.22 113.545 572.77 114.568C570.388 115.523 567.598 116 564.399 116C560.044 116 556.505 115.045 553.783 113.136C551.129 111.159 549.802 108.602 549.802 105.466C549.802 103.148 550.381 101.136 551.538 99.4318C552.694 97.7273 554.158 96.2614 555.927 95.0341C557.696 93.8068 559.67 92.7841 561.847 91.9659C564.025 91.1477 566.135 90.4318 568.176 89.8182C570.558 89.1364 572.736 88.5909 574.709 88.1818C576.751 87.7045 578.724 87.2273 580.63 86.75V79.1818C580.63 77.2045 579.983 75.6023 578.69 74.375C577.465 73.0795 575.696 72.4318 573.382 72.4318C571.136 72.4318 569.299 73.0455 567.87 74.2727C566.509 75.4318 565.828 77.0341 565.828 79.0795C565.828 80.3068 566.067 81.6023 566.543 82.9659L552.967 87.2614C552.014 84.9432 551.538 82.6932 551.538 80.5114C551.538 76.3523 553.545 73.1818 557.56 71C561.643 68.75 567.768 67.625 575.934 67.625Z" fill="black"/>
<path d="M626.416 44V89.3068C628.526 87.1932 630.227 85.4886 631.52 84.1932C632.881 82.8295 633.834 81.7727 634.378 81.0227C635.603 79.5227 636.216 78.0568 636.216 76.625C636.216 74.5795 634.753 73.5568 631.826 73.5568V68.8523H656.427V73.5568C653.297 73.625 650.336 74.5455 647.546 76.3182C644.756 78.0909 641.592 80.9205 638.053 84.8068L644.688 92.2727C646.526 94.3182 648.193 96.0909 649.69 97.5909C651.255 99.0909 652.616 100.352 653.773 101.375C655.338 102.739 656.427 103.727 657.04 104.341C657.652 104.886 658.128 105.364 658.469 105.773C658.673 106.114 658.843 106.455 658.979 106.795C659.115 107.068 659.183 107.477 659.183 108.023V113.239C659.183 113.989 659.047 114.466 658.775 114.67C658.571 114.807 658.06 114.875 657.244 114.875H649.69C648.125 114.534 646.457 113.716 644.688 112.42C642.919 111.057 640.877 109.045 638.563 106.386L626.416 92.375V98.3068C626.416 100.148 626.45 101.75 626.518 103.114C626.586 104.409 626.825 105.534 627.233 106.489C627.641 107.375 628.254 108.091 629.07 108.636C629.955 109.182 631.214 109.659 632.847 110.068V114.875H604.572V110.068C607.498 109.795 609.403 108.943 610.288 107.511C611.241 106.08 611.717 104.068 611.717 101.477V56.9886L604.265 53.3068V49.625L621.925 44H626.416Z" fill="black"/>
<path d="M694.375 83.8864C694.375 80.2045 693.661 77.375 692.232 75.3977C690.802 73.4205 688.761 72.4318 686.107 72.4318C683.657 72.4318 681.615 73.4545 679.982 75.5C678.349 77.4773 677.532 80.2727 677.532 83.8864H694.375ZM688.455 67.625C695.056 67.625 700.296 69.5 704.175 73.25C708.054 77 710.061 82.1477 710.197 88.6932H677.839C677.975 90.875 678.485 92.9545 679.37 94.9318C680.254 96.9091 681.411 98.6818 682.84 100.25C684.338 101.75 686.039 102.977 687.944 103.932C689.85 104.818 691.925 105.261 694.171 105.261C695.192 105.261 696.145 105.193 697.029 105.057C697.914 104.852 698.833 104.545 699.785 104.136C700.738 103.727 701.725 103.216 702.746 102.602C703.766 101.989 704.923 101.205 706.216 100.25L710.197 103.216C706.795 107.58 703.12 110.818 699.173 112.932C695.294 114.977 690.905 116 686.005 116C682.534 116 679.438 115.455 676.716 114.364C673.994 113.205 671.646 111.602 669.672 109.557C667.767 107.511 666.304 105.091 665.283 102.295C664.262 99.4318 663.752 96.2955 663.752 92.8864C663.752 89.2727 664.33 85.9318 665.487 82.8636C666.644 79.7273 668.277 77.0341 670.387 74.7841C672.565 72.5341 675.151 70.7955 678.145 69.5682C681.207 68.2727 684.644 67.625 688.455 67.625Z" fill="black"/>
<path d="M753.119 67.625C755.569 67.625 757.645 68.375 759.346 69.875C761.115 71.3068 762 72.9432 762 74.7841C762 75.3977 761.864 76.3864 761.592 77.75C761.32 79.0455 760.843 80.4773 760.163 82.0455C758.802 85.1818 757.304 86.75 755.671 86.75C754.446 86.75 752.643 85.6591 750.261 83.4773C749.036 82.3182 748.049 81.4659 747.301 80.9205C746.552 80.375 745.906 80.1023 745.361 80.1023C743.524 80.1023 741.721 81.5682 739.951 84.5C739.067 85.8636 738.42 87.2273 738.012 88.5909C737.672 89.9545 737.501 91.0455 737.501 91.8636V101.375C737.501 103.352 737.706 104.92 738.114 106.08C738.59 107.17 739.237 108.023 740.053 108.636C740.87 109.25 741.857 109.659 743.014 109.864C744.17 110 745.497 110.068 746.995 110.068V114.875H715.453V110.068C718.311 109.932 720.25 109.148 721.271 107.716C722.292 106.284 722.802 104.273 722.802 101.682V81.125L714.636 76.1136V73.0455L732.193 67.9318H737.501V81.125H737.706C742.265 72.125 747.403 67.625 753.119 67.625Z" fill="black"/>
</svg>
